<!--?xml version="1.0" standalone="no"?-->
              <svg id="sw-js-blob-svg" viewBox="0 0 100 100" xmlns="http://www.w3.org/2000/svg" version="1.1">
                    <defs> 
                        <linearGradient id="sw-gradient" x1="0" x2="1" y1="1" y2="0">
                            <stop id="stop1" stop-color="rgba(14.293, 132.854, 114.811, 1)" offset="0%"></stop>
                            <stop id="stop2" stop-color="rgba(226.113, 226.113, 121.355, 1)" offset="100%"></stop>
                        </linearGradient>
                    </defs>
                <path fill="url(#sw-gradient)" d="M23.7,-28C31.9,-21.5,40.4,-15,43.3,-6.5C46.3,2.1,43.6,12.9,38,21.2C32.3,29.6,23.7,35.5,15,36.7C6.3,37.9,-2.4,34.3,-10.9,30.9C-19.4,27.4,-27.7,24.1,-32.9,17.7C-38.1,11.3,-40.3,1.9,-38.4,-6.5C-36.6,-14.8,-30.7,-22.2,-23.6,-28.9C-16.5,-35.6,-8.3,-41.6,-0.2,-41.3C7.8,-41.1,15.6,-34.5,23.7,-28Z" width="100%" height="100%" transform="translate(50 50)" stroke-width="0" style="transition: 0.3s;" stroke="url(#sw-gradient)"></path>
              </svg>